<?xml version="1.0" standalone="no"?>
<!DOCTYPE svg PUBLIC "-//W3C//DTD SVG 20010904//EN"
 "http://www.w3.org/TR/2001/REC-SVG-20010904/DTD/svg10.dtd">
<svg version="1.0" xmlns="http://www.w3.org/2000/svg"
 width="100.000000pt" height="100.000000pt" viewBox="0 0 100.000000 100.000000"
 preserveAspectRatio="xMidYMid meet">
<metadata>
Created by potrace 1.11, written by Peter Selinger 2001-2013
</metadata>
<g transform="translate(0.000000,100.000000) scale(0.100000,-0.100000)"
fill="#000000" stroke="none">
<path d="M338 970 c-13 -18 -31 -30 -45 -30 -33 0 -85 -28 -108 -58 -19 -26
-20 -45 -23 -349 -2 -287 -1 -326 14 -355 9 -18 26 -39 37 -47 19 -14 18 -16
-34 -62 -42 -37 -51 -50 -42 -60 14 -14 35 -3 98 54 l40 37 224 0 223 0 52
-42 c28 -24 54 -47 57 -52 8 -11 39 -1 39 13 0 5 -23 28 -51 52 -50 42 -51 43
-31 59 50 41 52 58 52 384 0 355 -3 371 -74 406 -23 11 -51 20 -62 20 -11 0
-29 12 -41 28 -30 40 -75 41 -104 2 -19 -24 -30 -30 -62 -30 -30 0 -40 4 -44
19 -5 20 -42 41 -73 41 -11 0 -29 -13 -42 -30z m77 -31 c7 -21 -7 -39 -32 -39
-18 0 -27 41 -12 51 23 14 37 10 44 -12z m219 6 c8 -22 -4 -45 -24 -45 -23 0
-37 39 -19 51 21 13 36 11 43 -6z m4 -177 l3 -28 -140 0 -141 0 0 23 c0 13 3
27 7 31 4 3 66 5 137 4 l131 -3 3 -27z m90 -80 c16 -16 16 -180 0 -196 -17
-17 -439 -17 -456 0 -16 16 -16 180 0 196 17 17 439 17 456 0z m-368 -368 c11
-11 20 -29 20 -40 0 -26 -34 -60 -60 -60 -26 0 -60 34 -60 60 0 11 9 29 20 40
11 11 29 20 40 20 11 0 29 -9 40 -20z m360 0 c11 -11 20 -29 20 -40 0 -26 -34
-60 -60 -60 -11 0 -29 9 -40 20 -11 11 -20 29 -20 40 0 11 9 29 20 40 11 11
29 20 40 20 11 0 29 -9 40 -20z"/>
</g>
</svg>
